<?xml version="1.0" encoding="UTF-8"?>
<svg width="18px" height="18px" viewBox="0 0 18 18" version="1.1" xmlns="http://www.w3.org/2000/svg" xmlns:xlink="http://www.w3.org/1999/xlink">
    <title>系统设置</title>
    <g id="页面-1" stroke="none" stroke-width="1" fill="none" fill-rule="evenodd">
        <g id="测评后台图标" transform="translate(-22.000000, -655.000000)" fill="#3C4558" fill-rule="nonzero">
            <g id="左侧导航备份-3" transform="translate(0.000000, 71.000000)">
                <g id="导航" transform="translate(0.000000, 9.000000)">
                    <g id="系统设置备份" transform="translate(0.000000, 560.000000)">
                        <g id="编组-11" transform="translate(22.000000, 14.000000)">
                            <g id="系统设置">
                                <g id="测评中心" transform="translate(0.000000, 1.000000)">
                                    <path d="M5.69731175,1.4 L5.69731175,2.6 L3,2.6 C2.80670034,2.6 2.64542508,2.7371128 2.60812658,2.91938605 L2.6,3 L2.6,16 C2.6,16.1932997 2.7371128,16.3545749 2.91938605,16.3918734 L3,16.4 L15,16.4 C15.1932997,16.4 15.3545749,16.2628872 15.3918734,16.080614 L15.4,16 L15.4,3 C15.4,2.80670034 15.2628872,2.64542508 15.080614,2.60812658 L15,2.6 L12.0079058,2.6 L12.0079058,1.4 L15,1.4 C15.8345636,1.4 16.5198898,2.03896152 16.5934613,2.85436739 L16.6,3 L16.6,16 C16.6,16.8345636 15.9610385,17.5198898 15.1456326,17.5934613 L15,17.6 L3,17.6 C2.16543638,17.6 1.48011021,16.9610385 1.40653868,16.1456326 L1.4,16 L1.4,3 C1.4,2.16543638 2.03896152,1.48011021 2.85436739,1.40653868 L3,1.4 L5.69731175,1.4 Z" id="路径"></path>
                                    <path d="M11.5150098,0.4 L6.51500976,0.4 C5.63135416,0.4 4.91500976,1.1163444 4.91500976,2 C4.91500976,2.8836556 5.63135416,3.6 6.51500976,3.6 L11.5150098,3.6 C12.3986654,3.6 13.1150098,2.8836556 13.1150098,2 C13.1150098,1.1163444 12.3986654,0.4 11.5150098,0.4 Z M6.51500976,1.6 L11.5150098,1.6 C11.7359237,1.6 11.9150098,1.7790861 11.9150098,2 C11.9150098,2.2209139 11.7359237,2.4 11.5150098,2.4 L6.51500976,2.4 C6.29409586,2.4 6.11500976,2.2209139 6.11500976,2 C6.11500976,1.7790861 6.29409586,1.6 6.51500976,1.6 Z" id="矩形"></path>
                                    <path d="M12.3744084,6.01069018 C12.6129534,5.78068379 12.9927893,5.78760567 13.2227957,6.02615064 C13.4272458,6.23819061 13.4444933,6.56186788 13.2782643,6.79271922 L13.2073352,6.87453792 L8.65009527,11.2686541 C8.44606624,11.4653801 8.13694056,11.4897137 7.90689483,11.3400635 L7.82469427,11.2757861 L5.59106241,9.19537652 C5.34857856,8.96952653 5.33509415,8.58986693 5.56094414,8.34738307 C5.76169969,8.13184187 6.08398382,8.0972385 6.32342821,8.25083153 L6.40893759,8.3172648 L8.226,10.01 L12.3744084,6.01069018 Z" id="路径-8"></path>
                                    <path d="M10.5357248,12.814227 C10.8670956,12.814227 11.1357248,13.0828562 11.1357248,13.414227 C11.1357248,13.7124608 10.9181352,13.9598738 10.6330479,14.0063741 L10.5357248,14.014227 L7.44892385,14.014227 C7.117553,14.014227 6.84892385,13.7455979 6.84892385,13.414227 C6.84892385,13.1159933 7.06651346,12.8685803 7.35160073,12.82208 L7.44892385,12.814227 L10.5357248,12.814227 Z" id="路径-9"></path>
                                </g>
                            </g>
                        </g>
                    </g>
                </g>
            </g>
        </g>
    </g>
</svg>