<svg xmlns="http://www.w3.org/2000/svg" viewBox="0 0 18 18.41"><title>反馈</title><g id="图层_2" data-name="图层 2"><g id="图层_1-2" data-name="图层 1"><g id="页面-1"><g id="左侧导航备份"><g id="底部全局操作"><g id="fankui"><g id="椭圆形"><path d="M3.85,18.41l.23-1.31a3.92,3.92,0,0,0,0-1,3,3,0,0,0-.38-1.5A7.92,7.92,0,0,1,0,8.1,7.68,7.68,0,0,1,2.64,2.37,9.46,9.46,0,0,1,9,0a9.46,9.46,0,0,1,6.36,2.37A7.68,7.68,0,0,1,18,8.1a7.68,7.68,0,0,1-2.64,5.73A9.46,9.46,0,0,1,9,16.2,10,10,0,0,1,6.88,16a3.34,3.34,0,0,0-1.27.87,7.41,7.41,0,0,1-.72.74ZM9,1A8.42,8.42,0,0,0,3.31,3.12,6.64,6.64,0,0,0,1,8.1a6.91,6.91,0,0,0,3.24,5.71c.42.27.69,1,.81,2.17a4.72,4.72,0,0,1,1.59-1l.15-.06L7,15A8.84,8.84,0,0,0,9,15.2a8.42,8.42,0,0,0,5.69-2.12A6.64,6.64,0,0,0,17,8.1a6.67,6.67,0,0,0-2.3-5A8.46,8.46,0,0,0,9,1Z"/></g><g id="编组-6"><circle cx="5" cy="8" r="1"/><g id="椭圆形备份"><circle cx="13" cy="8" r="1"/></g><g id="椭圆形备份-2"><circle cx="9" cy="8" r="1"/></g></g></g></g></g></g></g></g></svg>