<?xml version="1.0" encoding="utf-8"?>
<!-- Generator: Adobe Illustrator 23.0.1, SVG Export Plug-In . SVG Version: 6.00 Build 0)  -->
<svg version="1.1" id="图层_1" xmlns="http://www.w3.org/2000/svg" xmlns:xlink="http://www.w3.org/1999/xlink" x="0px" y="0px"
	 viewBox="0 0 16 16" style="enable-background:new 0 0 16 16;" xml:space="preserve">
<title>giliangicon</title>
<g transform="translate(-21.000000, -105.000000)">
	<g id="左侧导航备份">
		<g id="导航" transform="translate(0.000000, 97.000000)">
			<g id="概况总览" transform="translate(21.000000, 8.000000)">
				<g id="giliangicon" transform="translate(1.000000, 1.000000)">
					<g id="矩形">
						<path d="M11.5,11.4h-9C1.1,11.4,0,10.2,0,8.9V3.1c0-1.4,1.1-2.5,2.5-2.5h9c1.4,0,2.5,1.1,2.5,2.5v5.8
							C14,10.2,12.9,11.4,11.5,11.4z M2.5,1.6C1.7,1.6,1,2.3,1,3.1v5.8c0,0.8,0.7,1.5,1.5,1.5h9c0.8,0,1.5-0.7,1.5-1.5V3.1
							c0-0.8-0.7-1.5-1.5-1.5C11.5,1.6,2.5,1.6,2.5,1.6z"/>
					</g>
					<g id="路径-2">
						<path d="M8.4,8.6L8.4,8.6C8.3,8.6,8.1,8.5,8,8.4L5.5,5.6L4.4,6.8C4.2,7,3.8,7,3.7,6.8c-0.2-0.2-0.2-0.5,0-0.7l1.5-1.6
							c0.1-0.1,0.2-0.1,0.4-0.2c0.1,0,0.3,0.1,0.4,0.2l2.5,2.8l1.2-1.2c0.2-0.2,0.5-0.2,0.7,0s0.2,0.5,0,0.7L8.8,8.4
							C8.7,8.5,8.6,8.6,8.4,8.6z"/>
					</g>
					<g id="编组-8" transform="translate(3.000000, 10.769231)">
						<g id="路径-3备份">
							<path d="M8.4,3.1c-0.1,0-0.1,0-0.3-0.1L4.9,0.5C4.7,0.3,4.7,0,4.8-0.2C5-0.4,5.2-0.3,5.5-0.3l3.2,2.6C9,2.5,9,2.7,8.8,3
								C8.7,3.1,8.6,3.1,8.4,3.1z"/>
						</g>
						<g id="路径-3备份_1_">
							<path d="M-0.6,3c-0.2-0.3-0.2-0.5,0.1-0.7l3.2-2.6c0.3,0,0.5-0.1,0.7,0.1C3.5,0,3.5,0.3,3.3,0.5L0.1,3C0,3.1-0.1,3.1-0.2,3.1
								C-0.4,3.1-0.5,3.1-0.6,3z"/>
						</g>
					</g>
					<g id="编组-7" transform="translate(5.000000, 0.000000)">
						<g id="直线-13">
							<path d="M0.5,0.6C0.2,0.6,0,1.4,0,1.1V0c0-0.3,0.2-0.5,0.5-0.5S1-0.2,1,0v1.1C1,1.4,0.8,0.6,0.5,0.6z"/>
						</g>
						<g id="直线-13备份">
							<path d="M4,0.6c-0.3,0-0.5,0.8-0.5,0.5V0c0-0.3,0.2-0.5,0.5-0.5S4.5-0.2,4.5,0v1.1C4.5,1.4,4.3,0.6,4,0.6z"/>
						</g>
					</g>
				</g>
			</g>
		</g>
	</g>
</g>
</svg>
