<svg xmlns="http://www.w3.org/2000/svg" viewBox="0 0 13 14"><defs><style>.cls-1{opacity:0;}</style></defs><title>kaoshiguanli</title><g id="图层_2" data-name="图层 2"><g id="图层_1-2" data-name="图层 1"><g id="页面-1"><g id="左侧导航备份"><g id="导航"><g id="考试管理"><g id="kaoshiguanli"><g id="kaoshiicon"><g id="矩形"><path d="M11.5,14H1.5A1.5,1.5,0,0,1,0,12.5V1.5A1.5,1.5,0,0,1,1.5,0h10A1.5,1.5,0,0,1,13,1.5v11A1.5,1.5,0,0,1,11.5,14ZM1.5,1a.5.5,0,0,0-.5.5v11a.5.5,0,0,0,.5.5h10a.5.5,0,0,0,.5-.5V1.5a.5.5,0,0,0-.5-.5Z"/></g><g id="编组-4"><g id="直线-6"><path d="M8.5,4h-5a.5.5,0,0,1,0-1h5a.5.5,0,0,1,0,1Z"/></g><g id="直线-6备份"><path d="M6.5,7.5h-3a.5.5,0,0,1,0-1h3a.5.5,0,0,1,0,1Z"/></g><g id="路径"><path d="M8.4,10.92a.54.54,0,0,1-.25-.06l-1.3-.75a.51.51,0,0,1-.18-.69.49.49,0,0,1,.68-.18l.87.5L9.47,7.58a.5.5,0,1,1,.86.5l-1.5,2.59A.5.5,0,0,1,8.4,10.92Z"/></g><g id="直线-6备份-2"><path d="M4.5,10.5h-1a.5.5,0,0,1,0-1h1a.5.5,0,0,1,0,1Z"/></g></g></g></g></g></g></g></g></g></g></svg>