<svg xmlns="http://www.w3.org/2000/svg" viewBox="0 0 17 16"><defs><style>.cls-1{opacity:0;}</style></defs><title>kechengguanli</title><g id="图层_2" data-name="图层 2"><g id="图层_1-2" data-name="图层 1"><g id="页面-1"><g id="左侧导航备份"><g id="导航"><g id="课程管理"><g id="kechengguanli"><g id="kechengicon"><g id="路径"><path d="M14,14.5a.5.5,0,0,1-.5-.5V2a.5.5,0,0,0-.5-.5H3a.5.5,0,0,0-.5.5V13a.5.5,0,0,1-1,0V2A1.5,1.5,0,0,1,3,.5H13A1.5,1.5,0,0,1,14.5,2V14A.5.5,0,0,1,14,14.5Z"/></g><path d="M13,15.5H3.5a2,2,0,0,1,0-4H14v1H3.5a1,1,0,0,0,0,2H13a.5.5,0,0,0,.5-.5h1A1.5,1.5,0,0,1,13,15.5Z"/><g id="直线-5"><path d="M11,4.5H5a.5.5,0,0,1,0-1h6a.5.5,0,0,1,0,1Z"/></g><g id="直线-5备份"><path d="M9,7H5A.5.5,0,0,1,5,6H9A.5.5,0,0,1,9,7Z"/></g></g><g class="cls-1"><rect width="17" height="16"/></g></g></g></g></g></g></g></g></svg>