<?xml version="1.0" encoding="utf-8"?>
<!-- Generator: Adobe Illustrator 23.0.1, SVG Export Plug-In . SVG Version: 6.00 Build 0)  -->
<svg version="1.1" id="图层_1" xmlns="http://www.w3.org/2000/svg" xmlns:xlink="http://www.w3.org/1999/xlink" x="0px" y="0px"
	 viewBox="0 0 16 16" style="enable-background:new 0 0 16 16;" xml:space="preserve">
<title>qiyeicon</title>
<g id="页面-1">
	<g transform="translate(-21.000000, -1061.000000)">
		<g id="左侧导航备份">
			<g id="导航" transform="translate(0.000000, 97.000000)">
				<g id="系统设置备份" transform="translate(21.000000, 964.000000)">
					<g id="icon">
						<g id="矩形">
							<path d="M9.6,15h-8V3.7c0-0.2,0.1-0.4,0.2-0.6C1.9,3,2.1,2.9,2.3,2.8l6.3-2.3c0.2-0.1,0.5-0.1,0.8,0l0.3,0.1L9.6,15z M2.6,14
								h6l0-12.5l-6,2.1L2.6,14z"/>
						</g>
						<g id="矩形备份-12">
							<path d="M14.6,15h-6V4.7l0.3-0.1c0.2-0.1,0.5-0.1,0.8-0.1l4.3,1.3c0.2,0.1,0.4,0.2,0.5,0.4c0.1,0.2,0.2,0.4,0.2,0.6V15z
								 M9.6,14h4V6.7l-4-1.2V14z"/>
						</g>
						<g id="直线-11">
							<path d="M15.1,15h-14c-0.3,0-0.5-0.2-0.5-0.5S0.8,14,1.1,14h14c0.3,0,0.5,0.2,0.5,0.5S15.4,15,15.1,15z"/>
						</g>
						<g id="直线-16">
							<path d="M6.6,6.5h-2C4.3,6.5,4.1,6.3,4.1,6s0.2-0.5,0.5-0.5h2c0.3,0,0.5,0.2,0.5,0.5S6.9,6.5,6.6,6.5z"/>
						</g>
						<g id="直线-16备份">
							<path d="M6.6,10.5h-2c-0.3,0-0.5-0.2-0.5-0.5s0.2-0.5,0.5-0.5h2c0.3,0,0.5,0.2,0.5,0.5S6.9,10.5,6.6,10.5z"/>
						</g>
						<g id="直线-16备份-2">
							<path d="M12.6,10.5h-2c-0.3,0-0.5-0.2-0.5-0.5s0.2-0.5,0.5-0.5h2c0.3,0,0.5,0.2,0.5,0.5S12.9,10.5,12.6,10.5z"/>
						</g>
					</g>
				</g>
			</g>
		</g>
	</g>
</g>
</svg>
