<svg xmlns="http://www.w3.org/2000/svg" viewBox="0 0 16 16"><defs><style>.cls-1{opacity:0;}</style></defs><title>shuju</title><g id="图层_2" data-name="图层 2"><g id="图层_1-2" data-name="图层 1"><g id="页面-1"><g id="左侧导航备份"><g id="导航"><g id="数据统计"><g id="shujutongji"><g id="shujuicon"><g id="路径"><path d="M15,15.5H2.08A1.58,1.58,0,0,1,.5,13.92V1a.5.5,0,0,1,1,0V13.92a.58.58,0,0,0,.58.58H15a.5.5,0,0,1,0,1Z"/></g><g id="直线-9"><path d="M5.31,12.27a.5.5,0,0,1-.5-.5V7.46a.5.5,0,0,1,.5-.5.51.51,0,0,1,.5.5v4.31A.5.5,0,0,1,5.31,12.27Z"/></g><g id="直线-9备份-2"><path d="M8.54,12.27a.5.5,0,0,1-.5-.5V4.23a.5.5,0,0,1,.5-.5.5.5,0,0,1,.5.5v7.54A.5.5,0,0,1,8.54,12.27Z"/></g><g id="直线-9备份-3"><path d="M11.77,12.27a.5.5,0,0,1-.5-.5V5.31a.5.5,0,1,1,1,0v6.46A.5.5,0,0,1,11.77,12.27Z"/></g></g><g id="矩形" class="cls-1"><rect width="16" height="16"/></g></g></g></g></g></g></g></g></svg>