<svg xmlns="http://www.w3.org/2000/svg" viewBox="0 0 16 16"><defs><style>.cls-1{opacity:0;}</style></defs><title>xitong</title><g id="图层_2" data-name="图层 2"><g id="图层_1-2" data-name="图层 1"><g id="页面-1"><g id="左侧导航备份"><g id="导航"><g id="系统设置"><g id="xitong"><g id="xitongicon"><g id="矩形"><path d="M13.5,12H2.5A1.5,1.5,0,0,1,1,10.5v-8A1.5,1.5,0,0,1,2.5,1h11A1.5,1.5,0,0,1,15,2.5v8A1.5,1.5,0,0,1,13.5,12ZM2.5,2a.5.5,0,0,0-.5.5v8a.5.5,0,0,0,.5.5h11a.5.5,0,0,0,.5-.5v-8a.5.5,0,0,0-.5-.5Z"/></g><g id="直线-10备份"><path d="M12,14.5H4a.5.5,0,0,1,0-1h8a.5.5,0,0,1,0,1Z"/></g><g id="直线-10"><path d="M11.5,7h-7a.5.5,0,0,1,0-1h7a.5.5,0,0,1,0,1Z"/></g></g><g class="cls-1"><rect width="16" height="16"/></g></g></g></g></g></g></g></g></svg>