<svg xmlns="http://www.w3.org/2000/svg" viewBox="0 0 16 16"><defs><style>.cls-1{opacity:0;}</style></defs><title>xuexi</title><g id="图层_2" data-name="图层 2"><g id="图层_1-2" data-name="图层 1"><g id="页面-1"><g id="左侧导航备份"><g id="导航"><g id="学习计划"><g id="xuexiicon"><g id="矩形"><path d="M13.5,16H2.5A1.5,1.5,0,0,1,1,14.5V4.5A1.5,1.5,0,0,1,2.5,3h11A1.5,1.5,0,0,1,15,4.5v10A1.5,1.5,0,0,1,13.5,16ZM2.5,4a.5.5,0,0,0-.5.5v10a.5.5,0,0,0,.5.5h11a.5.5,0,0,0,.5-.5V4.5a.5.5,0,0,0-.5-.5Z"/></g><g id="直线-7"><rect x="2" y="6" width="12" height="1"/></g><g id="直线-8"><path d="M5.5,5A.5.5,0,0,1,5,4.5v-3a.5.5,0,0,1,1,0v3A.5.5,0,0,1,5.5,5Z"/></g><g id="直线-8备份"><path d="M10,5a.5.5,0,0,1-.5-.5v-3a.5.5,0,0,1,1,0v3A.5.5,0,0,1,10,5Z"/></g><g id="路径"><path d="M7.19,13.93a.5.5,0,0,1-.35-.14L4.52,11.45a.5.5,0,0,1,0-.71.5.5,0,0,1,.71,0l2,2,4-3.8a.5.5,0,1,1,.69.73L7.54,13.8A.51.51,0,0,1,7.19,13.93Z"/></g><g class="cls-1"><rect width="16" height="16"/></g></g></g></g></g></g></g></g></svg>