<svg xmlns="http://www.w3.org/2000/svg" viewBox="0 0 16 16"><defs><style>.cls-1{opacity:0;}</style></defs><title>ziyuanguanli</title><g id="图层_2" data-name="图层 2"><g id="图层_1-2" data-name="图层 1"><g id="页面-1"><g id="左侧导航备份"><g id="导航"><g id="资源管理"><g id="ziyuanguanli"><g id="ziyuanicon"><g id="矩形"><path d="M6.5,8h-3A1.5,1.5,0,0,1,2,6.5v-3A1.5,1.5,0,0,1,3.5,2h3A1.5,1.5,0,0,1,8,3.5v3A1.5,1.5,0,0,1,6.5,8Zm-3-5a.5.5,0,0,0-.5.5v3a.5.5,0,0,0,.5.5h3A.5.5,0,0,0,7,6.5v-3A.5.5,0,0,0,6.5,3Z"/></g><g id="矩形备份-3"><path d="M6.5,15h-3A1.5,1.5,0,0,1,2,13.5v-3A1.5,1.5,0,0,1,3.5,9h3A1.5,1.5,0,0,1,8,10.5v3A1.5,1.5,0,0,1,6.5,15Zm-3-5a.5.5,0,0,0-.5.5v3a.5.5,0,0,0,.5.5h3a.5.5,0,0,0,.5-.5v-3a.5.5,0,0,0-.5-.5Z"/></g><g id="矩形备份-4"><path d="M13.5,15h-3A1.5,1.5,0,0,1,9,13.5v-3A1.5,1.5,0,0,1,10.5,9h3A1.5,1.5,0,0,1,15,10.5v3A1.5,1.5,0,0,1,13.5,15Zm-3-5a.5.5,0,0,0-.5.5v3a.5.5,0,0,0,.5.5h3a.5.5,0,0,0,.5-.5v-3a.5.5,0,0,0-.5-.5Z"/></g><g id="矩形备份-5"><path d="M12,8a3,3,0,1,1,3-3A3,3,0,0,1,12,8Zm0-5a2,2,0,1,0,2,2A2,2,0,0,0,12,3Z"/></g></g><g class="cls-1"><rect width="16" height="16"/></g></g></g></g></g></g></g></g></svg>