<svg xmlns="http://www.w3.org/2000/svg" viewBox="0 0 16 16"><defs><style>.cls-1{opacity:0;}</style></defs><title>组织管理</title><g id="图层_2" data-name="图层 2"><g id="图层_1-2" data-name="图层 1"><g id="页面-1"><g id="左侧导航备份"><g id="导航"><g id="组织权限"><g id="组织管理"><g id="icon"><g id="路径"><path d="M7.5,15.34a1.41,1.41,0,0,1-.6-.13L.79,12.39a.5.5,0,0,1-.24-.67.49.49,0,0,1,.66-.24L7.32,14.3a.44.44,0,0,0,.37,0l6.13-3a.5.5,0,1,1,.44.9l-6.13,3A1.52,1.52,0,0,1,7.5,15.34Z"/></g><path d="M7.5,12.11A1.41,1.41,0,0,1,6.9,12L.79,9.16a.5.5,0,0,1-.24-.67.49.49,0,0,1,.66-.24l6.11,2.82a.48.48,0,0,0,.37,0l6.13-3a.5.5,0,1,1,.44.9L8.13,12A1.39,1.39,0,0,1,7.5,12.11Z"/><g id="矩形"><path d="M7.53,9.23a1,1,0,0,1-.42-.09L.86,6.25a1,1,0,0,1-.52-.56,1,1,0,0,1,0-.76.94.94,0,0,1,.45-.47L7.31,1.12l6.92,3.16a1,1,0,0,1,.47,1.35,1,1,0,0,1-.46.45L8,9.13A1,1,0,0,1,7.53,9.23Zm-.2-7-6,3.11L7.53,8.23,13.8,5.18Z"/></g></g><g class="cls-1"><rect width="16" height="16"/></g></g></g></g></g></g></g></g></svg>